<?xml version="1.0" encoding="UTF-8"?>
<!DOCTYPE svg PUBLIC "-//W3C//DTD SVG 1.1//EN" "http://www.w3.org/Graphics/SVG/1.1/DTD/svg11.dtd">
<svg xmlns="http://www.w3.org/2000/svg" xmlns:xlink="http://www.w3.org/1999/xlink" version="1.1" width="271px" height="271px" viewBox="-0.5 -0.5 271 271"><defs><clipPath id="mx-clip-4-31-92-26-0"><rect x="4" y="31" width="92" height="26"/></clipPath><clipPath id="mx-clip-4-57-92-26-0"><rect x="4" y="57" width="92" height="26"/></clipPath><clipPath id="mx-clip-4-191-92-26-0"><rect x="4" y="191" width="92" height="26"/></clipPath><clipPath id="mx-clip-4-217-92-26-0"><rect x="4" y="217" width="92" height="26"/></clipPath><clipPath id="mx-clip-4-243-92-26-0"><rect x="4" y="243" width="92" height="26"/></clipPath><clipPath id="mx-clip-184-221-82-26-0"><rect x="184" y="221" width="82" height="26"/></clipPath><clipPath id="mx-clip-184-31-82-26-0"><rect x="184" y="31" width="82" height="26"/></clipPath><clipPath id="mx-clip-184-57-82-26-0"><rect x="184" y="57" width="82" height="26"/></clipPath><clipPath id="mx-clip-109-36-12-26-0"><rect x="109" y="36" width="12" height="26"/></clipPath><clipPath id="mx-clip-164-36-12-26-0"><rect x="164" y="36" width="12" height="26"/></clipPath><clipPath id="mx-clip-234-90-12-26-0"><rect x="234" y="90" width="12" height="26"/></clipPath><clipPath id="mx-clip-234-164-12-26-0"><rect x="234" y="164" width="12" height="26"/></clipPath><clipPath id="mx-clip-109-212-12-26-0"><rect x="109" y="212" width="12" height="26"/></clipPath><clipPath id="mx-clip-164-212-12-26-0"><rect x="164" y="212" width="12" height="26"/></clipPath></defs><g><path d="M 0 26 L 0 0 L 100 0 L 100 26" fill="rgb(255, 255, 255)" stroke="rgb(0, 0, 0)" stroke-miterlimit="10" pointer-events="all"/><path d="M 0 26 L 0 88 L 100 88 L 100 26" fill="none" stroke="rgb(0, 0, 0)" stroke-miterlimit="10" pointer-events="none"/><path d="M 0 26 L 100 26" fill="none" stroke="rgb(0, 0, 0)" stroke-miterlimit="10" pointer-events="none"/><g fill="rgb(0, 0, 0)" font-family="Helvetica" font-style="italic" pointer-events="none" text-anchor="middle" font-size="12px"><text x="49.5" y="17.5">Customer</text></g><g fill="rgb(0, 0, 0)" font-family="Helvetica" pointer-events="none" clip-path="url(#mx-clip-4-31-92-26-0)" font-size="12px"><text x="5.5" y="43.5">Name</text></g><g fill="rgb(0, 0, 0)" font-family="Helvetica" pointer-events="none" clip-path="url(#mx-clip-4-57-92-26-0)" font-size="12px"><text x="5.5" y="69.5">Email</text></g><path d="M 0 186 L 0 160 L 100 160 L 100 186" fill="rgb(255, 255, 255)" stroke="rgb(0, 0, 0)" stroke-miterlimit="10" pointer-events="none"/><path d="M 0 186 L 0 270 L 100 270 L 100 186" fill="none" stroke="rgb(0, 0, 0)" stroke-miterlimit="10" pointer-events="none"/><path d="M 0 186 L 100 186" fill="none" stroke="rgb(0, 0, 0)" stroke-miterlimit="10" pointer-events="none"/><g fill="rgb(0, 0, 0)" font-family="Helvetica" pointer-events="none" text-anchor="middle" font-size="12px"><text x="49.5" y="177.5">Product</text></g><g fill="rgb(0, 0, 0)" font-family="Helvetica" pointer-events="none" clip-path="url(#mx-clip-4-191-92-26-0)" font-size="12px"><text x="5.5" y="203.5">Name</text></g><g fill="rgb(0, 0, 0)" font-family="Helvetica" pointer-events="none" clip-path="url(#mx-clip-4-217-92-26-0)" font-size="12px"><text x="5.5" y="229.5">Description</text></g><g fill="rgb(0, 0, 0)" font-family="Helvetica" pointer-events="none" clip-path="url(#mx-clip-4-243-92-26-0)" font-size="12px"><text x="5.5" y="255.5">Price</text></g><path d="M 180 216 L 180 190 L 270 190 L 270 216" fill="rgb(255, 255, 255)" stroke="rgb(0, 0, 0)" stroke-miterlimit="10" pointer-events="none"/><path d="M 180 216 L 180 250 L 270 250 L 270 216" fill="none" stroke="rgb(0, 0, 0)" stroke-miterlimit="10" pointer-events="none"/><path d="M 180 216 L 270 216" fill="none" stroke="rgb(0, 0, 0)" stroke-miterlimit="10" pointer-events="none"/><g fill="rgb(0, 0, 0)" font-family="Helvetica" pointer-events="none" text-anchor="middle" font-size="12px"><text x="224.5" y="207.5">OrderLine</text></g><g fill="rgb(0, 0, 0)" font-family="Helvetica" pointer-events="none" clip-path="url(#mx-clip-184-221-82-26-0)" font-size="12px"><text x="185.5" y="233.5">Quantity</text></g><path d="M 180 26 L 180 0 L 270 0 L 270 26" fill="rgb(255, 255, 255)" stroke="rgb(0, 0, 0)" stroke-miterlimit="10" pointer-events="none"/><path d="M 180 26 L 180 90 L 270 90 L 270 26" fill="none" stroke="rgb(0, 0, 0)" stroke-miterlimit="10" pointer-events="none"/><path d="M 180 26 L 270 26" fill="none" stroke="rgb(0, 0, 0)" stroke-miterlimit="10" pointer-events="none"/><g fill="rgb(0, 0, 0)" font-family="Helvetica" pointer-events="none" text-anchor="middle" font-size="12px"><text x="224.5" y="17.5">Order</text></g><g fill="rgb(0, 0, 0)" font-family="Helvetica" pointer-events="none" clip-path="url(#mx-clip-184-31-82-26-0)" font-size="12px"><text x="185.5" y="43.5">orderID</text></g><g fill="rgb(0, 0, 0)" font-family="Helvetica" pointer-events="none" clip-path="url(#mx-clip-184-57-82-26-0)" font-size="12px"><text x="185.5" y="69.5">created</text></g><path d="M 100 65 L 180 65" fill="none" stroke="rgb(0, 0, 0)" stroke-miterlimit="10" pointer-events="none"/><g fill="rgb(0, 0, 0)" font-family="Helvetica" pointer-events="none" clip-path="url(#mx-clip-109-36-12-26-0)" font-size="12px"><text x="110.5" y="53.5">1</text></g><g fill="rgb(0, 0, 0)" font-family="Helvetica" pointer-events="none" clip-path="url(#mx-clip-164-36-12-26-0)" font-size="12px"><text x="165.5" y="53.5">*</text></g><path d="M 225 190 L 225 90" fill="none" stroke="rgb(0, 0, 0)" stroke-miterlimit="10" pointer-events="none"/><g fill="rgb(0, 0, 0)" font-family="Helvetica" pointer-events="none" clip-path="url(#mx-clip-234-90-12-26-0)" font-size="12px"><text x="235.5" y="107.5">1</text></g><g fill="rgb(0, 0, 0)" font-family="Helvetica" pointer-events="none" clip-path="url(#mx-clip-234-164-12-26-0)" font-size="12px"><text x="235.5" y="181.5">*</text></g><path d="M 100.6 240 L 179.46 240" fill="none" stroke="rgb(0, 0, 0)" stroke-miterlimit="10" pointer-events="none"/><g fill="rgb(0, 0, 0)" font-family="Helvetica" pointer-events="none" clip-path="url(#mx-clip-109-212-12-26-0)" font-size="12px"><text x="110.5" y="229.5">1</text></g><g fill="rgb(0, 0, 0)" font-family="Helvetica" pointer-events="none" clip-path="url(#mx-clip-164-212-12-26-0)" font-size="12px"><text x="165.5" y="229.5">*</text></g></g></svg>